Coordinates
version=1
nRows=28
nColumns=38
inDegrees=no

Units are S.I. units (second, meters, Newtons, ...)
If the header above contains a line with 'inDegrees', this indicates whether rotational values are in degrees (yes) or radians (no).

endheader
time	pelvis_tilt	pelvis_list	pelvis_rotation	pelvis_tx	pelvis_ty	pelvis_tz	hip_flexion_r	hip_adduction_r	hip_rotation_r	knee_angle_r	ankle_angle_r	subtalar_angle_r	mtp_angle_r	hip_flexion_l	hip_adduction_l	hip_rotation_l	knee_angle_l	ankle_angle_l	subtalar_angle_l	mtp_angle_l	lumbar_extension	lumbar_bending	lumbar_rotation	arm_flex_r	arm_add_r	arm_rot_r	elbow_flex_r	pro_sup_r	wrist_flex_r	wrist_dev_r	arm_flex_l	arm_add_l	arm_rot_l	elbow_flex_l	pro_sup_l	wrist_flex_l	wrist_dev_l
0.983333	-0.0939209	-0.0421217	-0.183488	0.907093	0.977832	-0.626598	0.187705	-0.0798876	-0.324086	-0.891655	0.799749	0.1	8.4727e-06	0.890154	-0.164143	-0.20157	-2.08517	0.228997	0.1	-8.60161e-06	-0.282151	0.0370382	0.30838	0.0953835	-0.589731	-0.135183	2.05051	2.09549	-0.0278763	-0.0186735	-0.416107	-0.369606	0.23771	1.85016	1.86062	0.0197158	-0.0137003
0.991667	-0.102768	-0.0179351	-0.18514	0.910138	0.980864	-0.626234	0.130211	-0.114699	-0.342451	-0.837476	0.736978	0.1	8.4727e-06	0.936432	-0.147388	-0.21287	-2.01175	0.231942	0.1	-8.60161e-06	-0.257034	0.00964434	0.321467	0.108712	-0.580858	-0.135443	2.10223	2.10221	-0.0278763	-0.0186735	-0.455364	-0.378614	0.224388	1.88071	1.87747	0.0197158	-0.0137003
1	-0.111513	0.00520357	-0.184479	0.913748	0.984286	-0.625941	0.0718655	-0.145821	-0.364678	-0.777118	0.65562	0.1	8.4727e-06	0.974863	-0.130152	-0.223941	-1.92964	0.235133	0.1	-8.60161e-06	-0.23124	-0.0161564	0.330824	0.12074	-0.571501	-0.131386	2.15261	2.10533	-0.0278763	-0.0186735	-0.497679	-0.385061	0.20698	1.911	1.89147	0.0197158	-0.0137003
1.00833	-0.119678	0.0262166	-0.181214	0.917784	0.987994	-0.625748	0.0129978	-0.171868	-0.389932	-0.712697	0.559072	0.1	8.4727e-06	1.00505	-0.112669	-0.233296	-1.83964	0.239166	0.1	-8.60161e-06	-0.205997	-0.0394105	0.33646	0.131691	-0.562215	-0.122742	2.20119	2.10427	-0.0278763	-0.0186735	-0.542153	-0.388688	0.185991	1.94025	1.90207	0.0197158	-0.0137003
1.01667	-0.126831	0.0441853	-0.175355	0.922091	0.991859	-0.625664	-0.0457348	-0.191815	-0.416576	-0.647162	0.452535	0.1	8.4727e-06	1.02672	-0.0952828	-0.239822	-1.74242	0.24492	0.1	-8.60161e-06	-0.182427	-0.0593895	0.338672	0.14153	-0.553463	-0.10974	2.24781	2.09911	-0.0278763	-0.0186735	-0.587678	-0.389526	0.16218	1.96802	1.90899	0.0197158	-0.0137003
1.025	-0.132662	0.0583584	-0.167197	0.92651	0.995737	-0.625669	-0.103299	-0.205059	-0.442311	-0.584212	0.342774	0.1	8.4727e-06	1.03982	-0.0785002	-0.242909	-1.63856	0.25353	0.1	-8.60161e-06	-0.161417	-0.0755778	0.338018	0.149997	-0.545596	-0.0929925	2.29245	2.09045	-0.0278763	-0.0186735	-0.632971	-0.387893	0.136525	1.99415	1.91229	0.0197158	-0.0137003
1.03333	-0.137022	0.068208	-0.157248	0.93088	0.999479	-0.625721	-0.158332	-0.211451	-0.464492	-0.528037	0.237504	0.1	8.4727e-06	1.04454	-0.0629527	-0.242536	-1.52867	0.266233	0.1	-8.60161e-06	-0.143531	-0.08765	0.335233	0.156646	-0.538836	-0.0733662	2.3351	2.07927	-0.0278763	-0.0186735	-0.676625	-0.384346	0.110167	2.0186	1.91237	0.0197158	-0.0137003
1.04167	-0.139925	0.0734872	-0.146132	0.935063	1.00295	-0.625765	-0.209274	-0.211318	-0.480558	-0.482922	0.1444	0.1	8.4727e-06	1.04137	-0.0493046	-0.239313	-1.41356	0.284195	0.1	-8.60161e-06	-0.128992	-0.0954834	0.331139	0.160875	-0.533277	-0.0518658	2.37563	2.06684	-0.0278763	-0.0186735	-0.717183	-0.379607	0.0843277	2.04137	1.90995	0.0197158	-0.0137003
1.05	-0.141496	0.0742815	-0.134498	0.938948	1.00604	-0.62575	-0.254588	-0.205409	-0.488417	-0.45273	0.0697623	0.1	8.4727e-06	1.03103	-0.038119	-0.234454	-1.29433	0.30826	0.1	-8.60161e-06	-0.117743	-0.0991991	0.326534	0.161973	-0.52887	-0.0295497	2.41371	2.05459	-0.0278763	-0.0186735	-0.753199	-0.374488	0.06023	2.06237	1.90597	0.0197158	-0.0137003
1.05833	-0.141888	0.0710395	-0.122933	0.942474	1.00866	-0.625638	-0.292963	-0.194842	-0.486857	-0.440474	0.0173945	0.1	8.4727e-06	1.01444	-0.02971	-0.229626	-1.17254	0.33864	0.1	-8.60161e-06	-0.109563	-0.0992042	0.322097	0.159197	-0.525426	-0.0074607	2.44877	2.04407	-0.0278763	-0.0186735	-0.783317	-0.369803	0.0389912	2.0814	1.90146	0.0197158	-0.0137003
1.06667	-0.141201	0.0645395	-0.111898	0.945619	1.01076	-0.625417	-0.323482	-0.180985	-0.475736	-0.448009	-0.011991	0.1	8.4727e-06	0.992636	-0.0240624	-0.226725	-1.05026	0.374708	0.1	-8.60161e-06	-0.104171	-0.0962016	0.318294	0.151868	-0.52262	0.0134285	2.48001	2.03681	-0.0278763	-0.0186735	-0.806363	-0.366286	0.0215232	2.09814	1.89739	0.0197158	-0.0137003
1.075	-0.139476	0.0558063	-0.101691	0.948395	1.01231	-0.625095	-0.345721	-0.165278	-0.455932	-0.475882	-0.0206571	0.1	8.4727e-06	0.966702	-0.0208355	-0.227597	-0.930123	0.414925	0.1	-8.60161e-06	-0.101327	-0.0911355	0.315316	0.139472	-0.520023	0.0322629	2.50652	2.03414	-0.0278763	-0.0186735	-0.82144	-0.364523	0.00845034	2.11221	1.89452	0.0197158	-0.0137003
1.08333	-0.13669	0.0460058	-0.0924255	0.950823	1.01329	-0.6247	-0.35975	-0.149092	-0.429215	-0.523402	-0.0130434	0.1	8.4727e-06	0.937771	-0.0194146	-0.233684	-0.815188	0.456854	0.1	-8.60161e-06	-0.100852	-0.0850738	0.31306	0.12176	-0.51715	0.0483528	2.52738	2.03688	-0.0278763	-0.0186735	-0.828003	-0.364898	6.5743e-05	2.12325	1.89331	0.0197158	-0.0137003
1.09167	-0.132794	0.0362893	-0.0840398	0.952926	1.01367	-0.624277	-0.366054	-0.133582	-0.397862	-0.588825	0.00541527	0.1	8.4727e-06	0.906983	-0.0190367	-0.245761	-0.708758	0.49738	0.1	-8.60161e-06	-0.102622	-0.0790704	0.311143	0.0988102	-0.513539	0.0612196	2.54175	2.04508	-0.0278763	-0.0186735	-0.825911	-0.367573	-0.00366573	2.13095	1.89383	0.0197158	-0.0137003
1.1	-0.127769	0.0276716	-0.0763174	0.954718	1.01344	-0.623877	-0.365415	-0.11966	-0.364384	-0.669661	0.0294418	0.1	8.4727e-06	0.875448	-0.0188856	-0.263708	-0.614048	0.533006	0.1	-8.60161e-06	-0.10654	-0.0740377	0.308952	0.0710637	-0.50882	0.0706351	2.54906	2.05782	-0.0278763	-0.0186735	-0.815426	-0.372492	-0.00306136	2.13517	1.89575	0.0197158	-0.0137003
1.10833	-0.121653	0.0209548	-0.068921	0.956203	1.01262	-0.623561	-0.358772	-0.108045	-0.331366	-0.763034	0.0547318	0.1	8.4727e-06	0.844181	-0.0181312	-0.286343	-0.533812	0.560165	0.1	-8.60161e-06	-0.112513	-0.0706656	0.305706	0.0393179	-0.502768	0.0766355	2.54899	2.07325	-0.0278763	-0.0186735	-0.797159	-0.379418	0.00135568	2.13592	1.89838	0.0197158	-0.0137003
1.11667	-0.114551	0.0167012	-0.0614385	0.957373	1.0112	-0.623396	-0.347096	-0.0993374	-0.301258	-0.865994	0.0783773	0.1	8.4727e-06	0.814039	-0.0159644	-0.311481	-0.470051	0.57562	0.1	-8.60161e-06	-0.120445	-0.0693948	0.300535	0.00466677	-0.495319	0.0794985	2.54149	2.08889	-0.0278763	-0.0186735	-0.77198	-0.387989	0.00894718	2.1334	1.90079	0.0197158	-0.0137003
1.125	-0.106618	0.0152417	-0.053443	0.958212	1.00919	-0.623446	-0.331284	-0.0940211	-0.276056	-0.975737	0.0989206	0.1	8.4727e-06	0.785681	-0.0116734	-0.336329	-0.423885	0.576895	0.1	-8.60161e-06	-0.130262	-0.0704354	0.292575	-0.0315983	-0.486534	0.0796808	2.52673	2.10221	-0.0278763	-0.0186735	-0.740883	-0.397793	0.0190494	2.12788	1.90196	0.0197158	-0.0137003
1.13333	-0.0980168	0.016709	-0.0445574	0.958698	1.00659	-0.62376	-0.312081	-0.0924643	-0.257079	-1.08975	0.116186	0.1	8.4727e-06	0.75957	-0.00470869	-0.357944	-0.395624	0.562703	0.1	-8.60161e-06	-0.141929	-0.0738191	0.281065	-0.0681122	-0.476538	0.0777266	2.50494	2.11117	-0.0278763	-0.0186735	-0.704856	-0.408437	0.0310496	2.11971	1.90104	0.0197158	-0.0137003
1.14167	-0.0888983	0.0210832	-0.034519	0.958799	1.00342	-0.62436	-0.290025	-0.0949005	-0.244867	-1.20591	0.130977	0.1	8.4727e-06	0.736029	0.0052465	-0.373706	-0.384996	0.533443	0.1	-8.60161e-06	-0.155479	-0.07946	0.265442	-0.103561	-0.465441	0.0741644	2.47633	2.1148	-0.0278763	-0.0186735	-0.664759	-0.419598	0.044446	2.10914	1.89743	0.0197158	-0.0137003
1.15	-0.0793929	0.0282103	-0.0232463	0.958477	0.99969	-0.62522	-0.265387	-0.101358	-0.239104	-1.32243	0.144634	0.1	8.4727e-06	0.715303	0.0181834	-0.381898	-0.391454	0.491673	0.1	-8.60161e-06	-0.170999	-0.0872098	0.245415	-0.136791	-0.453276	0.0694104	2.44098	2.11344	-0.0278763	-0.0186735	-0.621241	-0.431052	0.0588858	2.09637	1.89101	0.0197158	-0.0137003
1.15833	-0.069604	0.0378329	-0.010872	0.957691	0.995446	-0.626273	-0.238106	-0.111613	-0.238675	-1.43785	0.15853	0.1	8.4727e-06	0.697586	0.0337294	-0.382045	-0.414319	0.442316	0.1	-8.60161e-06	-0.188563	-0.0968899	0.221016	-0.166884	-0.439978	0.0637024	2.39885	2.10879	-0.0278763	-0.0186735	-0.574705	-0.442673	0.0741774	2.08144	1.88212	0.0197158	-0.0137003
1.16667	-0.0596609	0.0496175	0.00225982	0.956405	0.990777	-0.62741	-0.207743	-0.125198	-0.24185	-1.55095	0.173658	0.1	8.4727e-06	0.682967	0.0512012	-0.374924	-0.452651	0.392289	0.1	-8.60161e-06	-0.208148	-0.108307	0.192606	-0.193206	-0.425408	0.0570852	2.34979	2.10359	-0.0278763	-0.0186735	-0.525347	-0.454389	0.0902644	2.0643	1.87154	0.0197158	-0.0137003
1.175	-0.0497719	0.0631738	0.0156291	0.954596	0.985864	-0.628496	-0.173462	-0.141428	-0.24652	-1.66066	0.190391	0.1	8.4727e-06	0.671295	0.0697372	-0.36227	-0.504863	0.349377	0.1	-8.60161e-06	-0.229523	-0.121248	0.160835	-0.215422	-0.409411	0.0494627	2.29366	2.10101	-0.0278763	-0.0186735	-0.473257	-0.466129	0.107152	2.04492	1.86032	0.0197158	-0.0137003
1.18333	-0.0402448	0.0780529	0.0286012	0.952261	0.980978	-0.629402	-0.134108	-0.159448	-0.250458	-1.76594	0.208435	0.1	8.4727e-06	0.662036	0.0884325	-0.346427	-0.568336	0.320624	0.1	-8.60161e-06	-0.252186	-0.135454	0.126543	-0.233476	-0.391908	0.0407234	2.2306	2.10388	-0.0278763	-0.0186735	-0.418591	-0.477745	0.12477	2.02342	1.84956	0.0197158	-0.0137003
1.19167	-0.0315067	0.0937368	0.0405195	0.949427	0.97638	-0.63003	-0.0884045	-0.178262	-0.251606	-1.86574	0.227014	0.1	8.4727e-06	0.654175	0.106468	-0.329715	-0.639239	0.310708	0.1	-8.60161e-06	-0.275385	-0.150553	0.0906878	-0.247608	-0.372997	0.030846	2.16116	2.11391	-0.0278763	-0.0186735	-0.361716	-0.488961	0.142871	2.00023	1.84015	0.0197158	-0.0137003
1.2	-0.0240138	0.109592	0.0508047	0.946151	0.972181	-0.630341	-0.0352082	-0.196759	-0.248313	-1.95886	0.245099	0.1	8.4727e-06	0.646285	0.123129	-0.31406	-0.712826	0.32099	0.1	-8.60161e-06	-0.298184	-0.165974	0.0542668	-0.258383	-0.35304	0.0199806	2.08664	2.13106	-0.0278763	-0.0186735	-0.303305	-0.499355	0.160951	1.9762	1.83261	0.0197158	-0.0137003
1.20833	-0.0181684	0.124846	0.0590557	0.942523	0.968334	-0.630361	0.0262053	-0.213732	-0.239543	-2.04396	0.261621	0.1	8.4727e-06	0.636749	0.137774	-0.30077	-0.784108	0.34956	0.1	-8.60161e-06	-0.319577	-0.180895	0.0182314	-0.266705	-0.332705	0.00849419	2.00911	2.15327	-0.0278763	-0.0186735	-0.244393	-0.508372	0.17822	1.95265	1.82701	0.0197158	-0.0137003
